<svg width="26" height="26" viewBox="0 0 26 26" fill="none" xmlns="http://www.w3.org/2000/svg">
<path fill-rule="evenodd" clip-rule="evenodd" d="M2.72909 8.47472C2.16663 9.5023 2.16663 10.7419 2.16663 13.221V14.8688C2.16663 19.0947 2.16663 21.2077 3.43583 22.5205C4.70504 23.8334 6.74778 23.8334 10.8333 23.8334H15.1666C19.2521 23.8334 21.2949 23.8334 22.5641 22.5205C23.8333 21.2077 23.8333 19.0947 23.8333 14.8688V13.221C23.8333 10.7419 23.8333 9.5023 23.2708 8.47472C22.7084 7.44714 21.6808 6.80938 19.6256 5.53388L17.459 4.18919C15.2864 2.8409 14.2002 2.16675 13 2.16675C11.7997 2.16675 10.7135 2.8409 8.54099 4.18919L6.37432 5.53389C4.31915 6.80938 3.29156 7.44714 2.72909 8.47472ZM9.74996 18.6876C9.30123 18.6876 8.93746 19.0514 8.93746 19.5001C8.93746 19.9488 9.30123 20.3126 9.74996 20.3126H16.25C16.6987 20.3126 17.0625 19.9488 17.0625 19.5001C17.0625 19.0514 16.6987 18.6876 16.25 18.6876H9.74996Z" fill="#BCBCBC"/>
</svg>
