<svg width="26" height="26" viewBox="0 0 26 26" fill="none" xmlns="http://www.w3.org/2000/svg">
<path d="M6.09811 12.6626L7.20616 13.1636C7.28595 13.0072 7.32738 12.836 7.32738 12.6626H6.09811ZM4.47927 15.8337L3.37122 15.3328C3.27393 15.5234 3.234 15.7355 3.2558 15.946L4.47927 15.8337ZM6.81243 18.7164L7.33692 17.6702C7.30409 17.6556 7.27061 17.6425 7.23655 17.6308L6.81243 18.7164ZM12.5751 19.9503L12.568 21.1071H12.582L12.5751 19.9503ZM18.3376 18.7164L17.8303 17.6627L17.8131 17.6702L18.3376 18.7164ZM20.0523 17.4609L21.011 18.1851C21.0592 18.1286 21.1017 18.068 21.1377 18.004L20.0523 17.4609ZM19.8606 14.2482L18.7357 14.7146C18.7667 14.7808 18.8042 14.8441 18.8477 14.9037L19.8606 14.2482ZM18.9353 10.9028L20.159 10.7933C20.1577 10.7808 20.1563 10.7683 20.1546 10.7558L18.9353 10.9028ZM12.5751 23.76L12.558 24.9166C12.5693 24.9168 12.5807 24.9168 12.592 24.9166L12.5751 23.76ZM12.5734 3.55026C9.93264 3.55026 7.93618 4.62769 6.64713 6.37965C5.3975 8.07806 4.86883 10.3255 4.86883 12.6626H7.32738C7.32738 10.6086 7.79909 8.87824 8.66847 7.69664C9.49844 6.56861 10.7397 5.86382 12.5734 5.86382V3.55026ZM4.99006 12.1616L3.37122 15.3328L5.58732 16.3347L7.20616 13.1636L4.99006 12.1616ZM3.2558 15.946C3.43647 17.6903 4.64391 19.1987 6.38831 19.8021L7.23655 17.6308C6.40313 17.3423 5.79448 16.6071 5.70274 15.7215L3.2558 15.946ZM6.28796 19.7626C8.25702 20.6368 10.3983 21.0956 12.568 21.1071L12.582 18.7936C10.7718 18.784 8.98371 18.4013 7.33692 17.6702L6.28796 19.7626ZM12.582 21.1071C14.7519 21.0956 16.8929 20.6368 18.8621 19.7626L17.8131 17.6702C16.1664 18.4013 14.3782 18.784 12.568 18.7936L12.582 21.1071ZM18.8449 19.7702C19.688 19.4107 20.4293 18.867 21.011 18.1851L19.0937 16.7368C18.751 17.1387 18.3178 17.4549 17.8303 17.6627L18.8449 19.7702ZM21.1377 18.004C21.9279 16.6055 21.8271 14.8975 20.8733 13.5927L18.8477 14.9037C19.28 15.4952 19.3279 16.2789 18.967 16.9179L21.1377 18.004ZM20.9854 13.7818C20.5429 12.8366 20.2636 11.827 20.159 10.7933L17.7115 11.0123C17.8408 12.2915 18.1866 13.5421 18.7357 14.7146L20.9854 13.7818ZM20.1546 10.7558C19.8929 8.83242 19.1997 7.03754 17.9367 5.70514C16.6441 4.34151 14.8345 3.55026 12.5734 3.55026V5.86382C14.1684 5.86382 15.2985 6.39747 16.1021 7.24522C16.9352 8.1242 17.4951 9.42719 17.7159 11.0498L20.1546 10.7558ZM13.8027 4.70704V2.16675H11.3442V4.70704H13.8027ZM7.80477 23.4276C9.19398 24.374 10.851 24.8944 12.558 24.9166L12.592 22.6034C11.3958 22.5878 10.2293 22.2232 9.24634 21.5536L7.80477 23.4276ZM12.592 24.9166C14.299 24.8944 15.9561 24.374 17.3453 23.4276L15.9036 21.5536C14.9207 22.2232 13.7544 22.5878 12.558 22.6034L12.592 24.9166Z" fill="#1C1C1C"/>
</svg>
